<svg xmlns="http://www.w3.org/2000/svg" viewBox="0 0 32 32">
  <circle cx="16" cy="16" r="16" fill="#1a1a1a"/>
  <path d="M16 4C9.373 4 4 9.373 4 16s5.373 12 12 12 12-5.373 12-12S22.627 4 16 4zm5.5 13.2c-.2 1.7-1.4 2.8-3.1 3.1v2.2h-1.7v-2.1h-1.4v2.1h-1.7v-2.1H11v-1.7h1.1c.3 0 .6-.3.6-.6V14c0-.3-.3-.6-.6-.6H11V11.7h2.6V9.5h1.7v2.2h1.4V9.5h1.7v2.2c1.8.2 3.1 1.3 3.1 3.1 0 1.2-.6 2.1-1.5 2.6.7.4 1.3 1.2 1.5 1.8zm-5.1-4.5h-2.3v2.9h2.3c.8 0 1.5-.6 1.5-1.5s-.7-1.4-1.5-1.4zm.4 4.6h-2.7v3.3h2.7c.9 0 1.6-.7 1.6-1.6s-.7-1.7-1.6-1.7z" fill="#ff9500"/>
</svg>
